<?xml version="1.0" encoding="UTF-8" standalone="no"?><!-- Generator: Gravit.io --><svg xmlns="http://www.w3.org/2000/svg" xmlns:xlink="http://www.w3.org/1999/xlink" style="isolation:isolate" viewBox="-1.2 -0.2 66 66" width="66pt" height="66pt"><defs><clipPath id="_clipPath_4mU1oa4blsORVlGMC3vDgtEPPbUYl5cM"><rect width="64" height="64"/></clipPath></defs><g clip-path="url(#_clipPath_4mU1oa4blsORVlGMC3vDgtEPPbUYl5cM)"><circle vector-effect="non-scaling-stroke" cx="32" cy="32" r="32" fill="rgb(92,45,145)"/><g opacity="0.1"><path d=" M 9.82 9 C 0.957 16.898 -2.806 29.055 0.047 40.579 C 2.899 52.103 11.897 61.101 23.421 63.953 C 34.945 66.806 47.102 63.043 55 54.18 L 9.82 9 Z " fill="rgb(255,255,255)"/></g><g><linearGradient id="_lgradient_1" x1="0" y1="0.5" x2="6.123233995736766e-17" y2="-0.5" gradientTransform="matrix(52.506,0,0,34.61,6.538,16.823)" gradientUnits="userSpaceOnUse"><stop offset="0%" stop-opacity="1" style="stop-color:rgb(142,142,142)"/><stop offset="100%" stop-opacity="1" style="stop-color:rgb(181,181,181)"/></linearGradient><path d=" M 55.649 21.916 C 52.951 19.671 48.799 18.168 43.203 17.401 L 39.09 30.477 C 39.001 30.957 38.849 31.502 38.612 32.13 C 38.192 33.178 37.686 34.043 37.092 34.723 C 36.498 35.405 35.832 35.936 35.095 36.324 C 34.357 36.709 33.555 36.976 32.688 37.122 C 31.821 37.268 30.924 37.314 29.998 37.26 C 29.07 37.206 28.282 37.08 27.632 36.881 C 26.982 36.682 26.385 36.352 25.84 35.891 C 25.437 35.438 25.203 34.844 25.139 34.107 C 25.074 33.371 25.253 32.46 25.674 31.375 C 26.051 30.432 26.528 29.609 27.105 28.911 C 27.683 28.212 28.358 27.67 29.131 27.285 C 29.868 26.9 30.661 26.642 31.51 26.512 C 32.357 26.383 33.298 26.349 34.332 26.409 C 35.188 26.46 35.985 26.586 36.724 26.79 C 37.075 26.886 37.382 27.013 37.649 27.166 L 40.806 17.126 C 40.027 17.053 39.23 16.988 38.401 16.941 C 30.432 16.475 23.734 17.396 18.304 19.697 C 12.876 22.001 9.256 25.416 7.448 29.943 C 6.906 31.331 6.614 32.638 6.571 33.867 C 6.049 42.771 11.773 47.784 15.307 50.014 C 16.725 50.964 17.986 51.434 17.986 51.434 L 19.606 46.258 L 20.085 44.986 C 22.217 45.389 24.588 45.669 27.207 45.821 C 35.232 46.29 41.959 45.373 47.388 43.069 C 52.815 40.767 56.405 37.379 58.155 32.901 C 59.905 28.427 59.071 24.765 55.652 21.918" fill="url(#_lgradient_1)"/></g></g></svg>